<svg xmlns="http://www.w3.org/2000/svg" viewBox="0 0 381 100"><defs><linearGradient id="scan" x1="0" y1="0" x2="0" y2="1"><stop offset="0" stop-color="#AECCFF" stop-opacity="0"/><stop offset=".5" stop-color="#AECCFF" stop-opacity=".95"/><stop offset="1" stop-color="#AECCFF" stop-opacity="0"/></linearGradient></defs><rect width="381" height="100" fill="#16202B"/><g transform="translate(106,79) scale(0.0828,-0.0828)"><g fill="#FFFFFF"><path d="M325 11 309 107Q309 112 303 112H176Q170 112 170 107L154 11Q153 0 141 0H24Q11 0 14 13L161 689Q163 700 174 700H309Q320 700 322 689L468 13L469 9Q469 0 458 0H338Q326 0 325 11ZM194 221H284Q289 221 288 226L241 499Q240 502 238 502Q236 502 235 499L190 226Q190 221 194 221Z"/><path transform="translate(482,0)" d="M310 510Q318 505 316 495L297 378Q296 367 283 370Q272 374 256 374Q241 374 230 370Q207 366 193 342.5Q179 319 179 288V13Q179 8 175.5 4.5Q172 1 167 1H50Q45 1 41.5 4.5Q38 8 38 13V502Q38 507 41.5 510.5Q45 514 50 514H167Q172 514 175.5 510.5Q179 507 179 502V463Q179 459 180.5 458.5Q182 458 184 461Q211 520 268 520Q295 520 310 510Z"/><path transform="translate(806,0)" d="M397 213H177Q172 213 172 208V171Q172 146 185.5 129.5Q199 113 220 113Q239 113 251 125.5Q263 138 267 157Q270 167 280 167L395 161Q400 161 403.5 157.5Q407 154 406 148Q399 71 352.5 31.5Q306 -8 220 -8Q131 -8 81 36.5Q31 81 31 160V354Q31 430 81.5 476Q132 522 220 522Q308 522 358.5 476Q409 430 409 354V225Q409 220 405.5 216.5Q402 213 397 213ZM172 344V305Q172 300 177 300H263Q268 300 268 305V344Q268 369 254.5 385Q241 401 220 401Q199 401 185.5 385Q172 369 172 344Z"/><path transform="translate(1242,0)" d="M24 142V149Q24 154 27.5 157.5Q31 161 36 161H146Q151 161 154.5 157.5Q158 154 158 149V146Q158 125 173 111.5Q188 98 210 98Q230 98 241.5 109.5Q253 121 253 139Q253 161 234 173.5Q215 186 191.5 194.5Q168 203 159 206Q104 226 66.5 261.5Q29 297 29 364Q29 437 77 479Q125 521 205 521Q288 521 336.5 477Q385 433 385 358Q385 353 381.5 349.5Q378 346 373 346H266Q261 346 257.5 349.5Q254 353 254 358V366Q254 386 241.5 398.5Q229 411 209 411Q188 411 176 397.5Q164 384 164 366Q164 342 184.5 328.5Q205 315 247 299Q290 283 320.5 266.5Q351 250 373 219.5Q395 189 395 143Q395 74 344.5 33.5Q294 -7 210 -7Q125 -7 74.5 33.5Q24 74 24 142Z"/></g><g fill="#4C8DF5"><path transform="translate(1654,0)" d="M445 488Q445 395 395 339Q345 283 264 283H189Q184 283 184 278V12Q184 7 180.5 3.5Q177 0 172 0H55Q50 0 46.5 3.5Q43 7 43 12V689Q43 694 46.5 697.5Q50 701 55 701H257Q312 701 355 674Q398 647 421.5 598.5Q445 550 445 488ZM304 485Q304 529 284.5 554Q265 579 233 579H189Q184 579 184 574V398Q184 393 189 393H233Q265 393 284.5 417.5Q304 442 304 485Z"/><path transform="translate(2119,0)" d="M30 651Q30 686 52 708Q74 730 109 730Q144 730 165.5 708Q187 686 187 651Q187 617 165 594.5Q143 572 109 572Q75 572 52.5 594.5Q30 617 30 651ZM40 12V502Q40 507 43.5 510.5Q47 514 52 514H169Q174 514 177.5 510.5Q181 507 181 502V12Q181 7 177.5 3.5Q174 0 169 0H52Q47 0 43.5 3.5Q40 7 40 12Z"/><path transform="translate(2338,0)" d="M418 355V160Q418 79 382 35.5Q346 -8 278 -8Q256 -8 232 0.5Q208 9 188 31Q186 34 184 33Q182 32 182 29V-174Q182 -179 178.5 -182.5Q175 -186 170 -186H53Q48 -186 44.5 -182.5Q41 -179 41 -174V502Q41 507 44.5 510.5Q48 514 53 514H170Q175 514 178.5 510.5Q182 507 182 502V486Q182 484 184 484Q188 484 192 489Q226 522 278 522Q347 522 382.5 477.5Q418 433 418 355ZM229 402Q208 402 195 386Q182 370 182 344V171Q182 145 195 129Q208 113 229 113Q251 113 264 129Q277 145 277 171V344Q277 370 264 386Q251 402 229 402Z"/><path transform="translate(2786,0)" d="M397 213H177Q172 213 172 208V171Q172 146 185.5 129.5Q199 113 220 113Q239 113 251 125.5Q263 138 267 157Q270 167 280 167L395 161Q400 161 403.5 157.5Q407 154 406 148Q399 71 352.5 31.5Q306 -8 220 -8Q131 -8 81 36.5Q31 81 31 160V354Q31 430 81.5 476Q132 522 220 522Q308 522 358.5 476Q409 430 409 354V225Q409 220 405.5 216.5Q402 213 397 213ZM172 344V305Q172 300 177 300H263Q268 300 268 305V344Q268 369 254.5 385Q241 401 220 401Q199 401 185.5 385Q172 369 172 344Z"/></g></g><g transform="translate(8,8)"><circle cx="42" cy="42" r="30" fill="none" stroke="#FFFFFF" stroke-width="13"/><rect x="36" y="36" width="12" height="12" rx="3" fill="#34C46F"/><g fill="#16202B"><circle cx="63.2" cy="20.8" r="4.2"/><circle cx="20.8" cy="20.8" r="4.2"/><circle cx="20.8" cy="63.2" r="4.2"/><circle cx="63.2" cy="63.2" r="4.2"/></g><g><rect x="0" y="2" width="84" height="11" rx="5" fill="url(#scan)"/><rect x="0" y="6.4" width="84" height="2.6" rx="1.3" fill="#EAF2FF"/><animateTransform attributeName="transform" type="translate" values="0 0;0 72;0 0" keyTimes="0;0.5;1" dur="5.2s" calcMode="spline" keySplines="0.42 0 0.58 1;0.42 0 0.58 1" repeatCount="indefinite"/></g></g></svg>