<?xml version="1.0" encoding="UTF-8"?>
<svg width="680" height="480" viewBox="0 0 680 480" xmlns="http://www.w3.org/2000/svg" font-family="Arial, sans-serif">
<title>ASME B16.5 Class 150 Weld Neck Flange — DN100/NPS 4</title>
<desc>Önden görünüş ve yan kesit, boyut etiketleri ve değer tablosu (28 Nisan 2026, AresPipe 43. oturum)</desc>

<defs>
<marker id="arrow" viewBox="0 0 10 10" refX="8" refY="5" markerWidth="6" markerHeight="6" orient="auto-start-reverse">
<path d="M2 1L8 5L2 9" fill="none" stroke="#333" stroke-width="1.5" stroke-linecap="round" stroke-linejoin="round"/>
</marker>
</defs>

<style>
.t{font-size:14px;fill:#1a1a1a}
.ts{font-size:12px;fill:#5a5a5a}
.th{font-size:14px;font-weight:500;fill:#1a1a1a}
</style>

<text class="th" x="340" y="28" text-anchor="middle" font-size="16">ASME B16.5 — Class 150 Weld Neck (DN100/NPS 4)</text>

<text class="ts" x="180" y="58" text-anchor="middle">Önden görünüş</text>
<text class="ts" x="470" y="58" text-anchor="middle">Yan kesit</text>

<!-- Front view -->
<circle cx="180" cy="200" r="71.4" fill="#f0f0ec" stroke="#1a1a1a" stroke-width="1"/>
<circle cx="180" cy="200" r="59.5" fill="none" stroke="#5a5a5a" stroke-width="0.5" stroke-dasharray="4 2"/>
<circle cx="180" cy="200" r="49.1" fill="#f0f0ec" stroke="#1a1a1a" stroke-width="1"/>
<circle cx="180" cy="200" r="32" fill="white" stroke="#1a1a1a" stroke-width="1"/>

<circle cx="235" cy="177" r="6" fill="white" stroke="#1a1a1a" stroke-width="0.8"/>
<circle cx="203" cy="145" r="6" fill="white" stroke="#1a1a1a" stroke-width="0.8"/>
<circle cx="157" cy="145" r="6" fill="white" stroke="#1a1a1a" stroke-width="0.8"/>
<circle cx="125" cy="177" r="6" fill="white" stroke="#1a1a1a" stroke-width="0.8"/>
<circle cx="125" cy="223" r="6" fill="white" stroke="#1a1a1a" stroke-width="0.8"/>
<circle cx="157" cy="255" r="6" fill="white" stroke="#1a1a1a" stroke-width="0.8"/>
<circle cx="203" cy="255" r="6" fill="white" stroke="#1a1a1a" stroke-width="0.8"/>
<circle cx="235" cy="223" r="6" fill="white" stroke="#1a1a1a" stroke-width="0.8"/>

<line x1="98" y1="200" x2="262" y2="200" stroke="#5a5a5a" stroke-width="0.5" stroke-dasharray="6 2 1 2"/>
<line x1="180" y1="118" x2="180" y2="282" stroke="#5a5a5a" stroke-width="0.5" stroke-dasharray="6 2 1 2"/>

<text class="th" x="180" y="120" text-anchor="middle">O</text>
<text class="th" x="180" y="170" text-anchor="middle">R</text>
<text class="th" x="180" y="205" text-anchor="middle">B</text>
<text class="th" x="148" y="180" text-anchor="middle">C</text>

<line x1="241" y1="173" x2="262" y2="155" stroke="#5a5a5a" stroke-width="0.5" stroke-dasharray="2 2"/>
<text class="ts" x="266" y="155">8× hole</text>

<!-- Side view -->
<path d="M 434,217 L 428,265 L 399,265 L 399,280 L 541,280 L 541,265 L 512,265 L 506,217 Z" fill="#f0f0ec" stroke="#1a1a1a" stroke-width="1"/>
<rect x="438" y="217" width="64" height="63" fill="white" stroke="#1a1a1a" stroke-width="0.6"/>

<rect x="421" y="262" width="7" height="3" fill="#1a1a1a" opacity="0.6"/>
<rect x="512" y="262" width="7" height="3" fill="#1a1a1a" opacity="0.6"/>

<line x1="470" y1="200" x2="470" y2="298" stroke="#5a5a5a" stroke-width="0.5" stroke-dasharray="6 2 1 2"/>

<text class="th" x="470" y="252" text-anchor="middle">B</text>

<line x1="399" y1="272" x2="380" y2="272" stroke="#5a5a5a" stroke-width="0.5" stroke-dasharray="2 2"/>
<text class="th" x="375" y="276" text-anchor="end">T</text>

<line x1="434" y1="240" x2="380" y2="240" stroke="#5a5a5a" stroke-width="0.5" stroke-dasharray="2 2"/>
<text class="th" x="375" y="244" text-anchor="end">Y</text>

<line x1="506" y1="217" x2="565" y2="207" stroke="#5a5a5a" stroke-width="0.5" stroke-dasharray="2 2"/>
<text class="th" x="570" y="211">A</text>

<line x1="512" y1="265" x2="565" y2="255" stroke="#5a5a5a" stroke-width="0.5" stroke-dasharray="2 2"/>
<text class="th" x="570" y="259">X</text>

<line x1="541" y1="280" x2="600" y2="290" stroke="#5a5a5a" stroke-width="0.5" stroke-dasharray="2 2"/>
<text class="th" x="605" y="294">O</text>

<line x1="424" y1="262" x2="380" y2="195" stroke="#5a5a5a" stroke-width="0.5" stroke-dasharray="2 2"/>
<text class="th" x="375" y="195" text-anchor="end">RF</text>

<!-- Tablo -->
<line x1="60" y1="335" x2="620" y2="335" stroke="#cccccc" stroke-width="0.5"/>

<text class="th" x="60" y="358">Boyut etiketi açıklamaları (DN100 / NPS 4)</text>

<text class="ts" x="60" y="383">O — Flansh dış çap: 228.6 mm</text>
<text class="ts" x="60" y="403">T — Flansh kalınlığı: 23.9 mm</text>
<text class="ts" x="60" y="423">X — Hub taban çapı: 134.9 mm</text>
<text class="ts" x="60" y="443">Y — Hub uzunluğu: 76.2 mm</text>

<text class="ts" x="370" y="383">R — Raised face çapı: 157.2 mm</text>
<text class="ts" x="370" y="403">C — Bolt circle çapı: 190.5 mm</text>
<text class="ts" x="370" y="423">B — Bore (Sch 40): 102.3 mm</text>
<text class="ts" x="370" y="443">A — Pipe OD (kaynak ucu): 114.3 mm</text>

<text class="ts" x="60" y="463">RF — Raised face yüksekliği: 1.6 mm   ·   8× cıvata deliği = ⌀19.05 mm</text>
</svg>
